<svg xmlns="http://www.w3.org/2000/svg" viewBox="0 0 100 100">
  <!-- Background gradient -->
  <defs>
    <linearGradient id="grad" x1="0%" y1="0%" x2="100%" y2="100%">
      <stop offset="0%" style="stop-color:#4F46E5;stop-opacity:1" />
      <stop offset="100%" style="stop-color:#6366F1;stop-opacity:1" />
    </linearGradient>
  </defs>
  <rect width="100" height="100" rx="20" fill="url(#grad)"/>

  <!-- Question mark -->
  <path d="M 50 20 C 35 20, 25 30, 25 42 L 35 42 C 35 35, 40 30, 50 30 C 60 30, 65 35, 65 42 C 65 48, 62 51, 55 56 L 52 59 C 47 63, 45 66, 45 72 L 55 72 C 55 68, 56 66, 60 63 L 63 60 C 70 54, 75 50, 75 42 C 75 30, 65 20, 50 20 Z" fill="white"/>
  <circle cx="50" cy="82" r="5" fill="white"/>
</svg>
